<?xml version="1.0" encoding="iso-8859-1"?>
<!-- Uploaded to: SVG Repo, www.svgrepo.com, Generator: SVG Repo Mixer Tools -->
<svg fill="#000000" height="800px" width="800px" version="1.1" id="Layer_1" xmlns="http://www.w3.org/2000/svg" xmlns:xlink="http://www.w3.org/1999/xlink" 
	 viewBox="0 0 320 320" xml:space="preserve">
<g id="XMLID_228_">
	<path id="XMLID_229_" d="M230,20h-10.73l-5.854-11.708C210.876,3.21,205.682,0,200,0h-80c-5.682,0-10.876,3.21-13.416,8.292
		L100.729,20H90c-8.284,0-15,6.716-15,15v260c0,8.284,6.716,15,15,15h15.872c2.062,5.822,7.6,10,14.128,10h80
		c6.528,0,12.066-4.178,14.128-10H230c8.284,0,15-6.716,15-15V35C245,26.716,238.284,20,230,20z M215,280H105V50h5
		c5.682,0,10.876-3.21,13.416-8.292L129.27,30h61.459l5.854,11.708C199.124,46.79,204.318,50,210,50h5V280z"/>
	<path id="XMLID_232_" d="M177.886,147.24c-3.892-2.405-8.635-2.886-12.886-1.383V100c0-8.284-6.716-15-15-15s-15,6.716-15,15v70
		c0,5.199,2.691,10.027,7.114,12.76c3.891,2.404,8.635,2.887,12.886,1.383V230c0,8.284,6.716,15,15,15s15-6.716,15-15v-70
		C185,154.801,182.309,149.973,177.886,147.24z"/>
</g>
</svg>